<svg xmlns="http://www.w3.org/2000/svg" preserveAspectRatio="xMidYMid" width="400" height="554"><defs><style>.cls-1 { fill: #fecd33; fill-rule: evenodd; }</style></defs><path d="M197.077 11l.97 15.504c2.01 7.437 11.978 20.457 10.66 26.162-7.466 23.042-46.342 47.06-29.078 84.3-3.878 1.94-7.756 3.877-11.633 5.815l-9.693-25.192c-6.3-26.654 19.73-38.527 26.172-53.294l.97-32.945c1.92-7.703 7.774-14.204 11.63-20.35zm28.11 19.38c24.676 36.63-22.91 64.954-18.462 92.055 2.495 1.232 5.01 2.313 8.77-.003 1.99-6.67.437-11.418.968-18.41 3.554-6.136 7.11-12.274 10.662-18.41l.97 1.937c9.138 13.38 7.813 39.303.97 53.293-6.14-2.26-12.28-4.522-18.418-6.783h-25.202c-6.284-9.432-1.416-25.82 1.94-33.914C197.46 75.83 223.45 57.97 225.186 30.38zm-58.16 1.938c8.617 6.576 13.784 17.474 12.602 31.007-5.893 4.15-11.06 10.94-14.54 17.44h-.97c-2.197-16.607 3.846-29.685 2.908-48.447zM389 292.004l-46.527 4.845c-.946 13.818-6.49 23.848-8.724 35.85l35.864 25.194-15.51 27.132s-40.356-18.662-40.71-18.41c-3.767 4.79-22.43 23.394-24.233 24.223l19.387 42.634-26.17 15.504s-18.42-25.518-27.142-37.79c-9.72 3.79-32.956 9.69-32.956 9.69s-13.622 42.41-11.633 64.92c11.614 2.93 11.847 26.478-.97 30.04V542h-14.54v-26.162c-11.363-2.164-15.915-23.74-.968-30.04 1.32 2.51-5.636-43.103-11.633-64.92-8.243-.25-37.486-8.93-37.803-8.72-10.98 10.23-18.74 27.734-28.11 36.82-9.053-4.95-26.644-14.358-26.17-14.535 0 0 12.923-30.362 19.385-44.573-2.926-.37-16.35-13.89-23.265-23.255-13.57 5.813-42.65 18.41-42.65 18.41l-14.54-26.162L66.22 332.7s-8.038-23.62-8.724-34.882L10 292.973v-30.04c1.292-1.29 43.557-4.734 47.496-5.813 1.616-8.074 3.23-16.15 4.847-24.224-8.902-5.355-36.102-22.868-40.71-31.007l15.508-25.195 44.59 19.38c5.168-6.46 10.34-12.92 15.508-19.38-3.725-4.51-22.294-48.45-22.294-48.45l26.31-14.17c1.847.464 38.663 48.41 47.42 76.208-108.112 87.073-9.853 179.227 26.11 180.208 8.273-7.288 11.615-12.942 12.6-15.503.985-2.56-3.232-110.145-4.847-155.036-3.922-17.144-16.56-15.092-23.263-25.193-2.38-4.908.858-14.158 2.465-19.364 13.947-13.946 54.138-23.735 75.033.55 1.18 1.937 4.24 14.394 1.984 16.876-7.2 7.92-19.624 12.074-20.27 27.6-.294 7.11-5.095 148.346-2.993 153.598 2.1 5.253 7.85 11.495 12.6 16.473 104.47-45.622 72.754-148.947 20.356-179.26 0 0 17.642-37.79 19.386-40.697 1.745-2.907 31.018-37.79 31.018-37.79l25.202 15.503s-14.474 31.2-22.294 49.418c7.048 4.093 16.478 18.41 16.478 18.41l44.59-19.38s10.36 17.95 13.57 26.164c-7.78 7.904-36.876 26.042-39.743 31.007 1.94 7.428 3.878 15.827 5.816 23.255 14.097 1.14 19.84 1.67 46.527 4.845v30.04z" class="cls-1"/></svg>